Exact Audio Copy V0.99 prebeta 1 from 25. May 2007

EAC 抓取日志文件从9. 四月 2011, 0:41

群星 / 中国歌剧歌坛名人集2

使用驱动器  ：PIONEER DVD-RW  DVR-115   Adapter: 0  ID: 0

读取模式     : 保护
使用精确流   : 是
废除音频缓冲 : 是
使用 C2 指针 : 否

读取偏移校正                   : 48
读取 Lead-In 和 Lead-Out       : 否
用静音填充抓取中丢失偏移的采样 : 是
去除首尾静音块                 : 否
已用接口                       : Win NT 及 2000 本地 Win32 接口

所用输出格式 : 内部 WAV 函数
样本格式     : 44.100 Hz;16 Bit;立体声
使用压缩偏移 : 48


被抓轨 CD 的 TOC

     音轨 |   开始   |   长度   | 起始扇区 | 结尾扇区 
    --------------------------------------------------
       1  |  0:00.00 |  3:45.62 |       0  |   16936  
       2  |  3:45.62 |  4:33.30 |   16937  |   37441  
       3  |  8:19.17 |  2:57.53 |   37442  |   50769  
       4  | 11:16.70 |  6:14.25 |   50770  |   78844  
       5  | 17:31.20 |  2:36.30 |   78845  |   90574  
       6  | 20:07.50 |  5:48.70 |   90575  |  116744  
       7  | 25:56.45 |  3:48.57 |  116745  |  133901  
       8  | 29:45.27 |  2:52.68 |  133902  |  146869  
       9  | 32:38.20 | 10:07.07 |  146870  |  192401  
      10  | 42:45.27 |  4:50.68 |  192402  |  214219  
      11  | 47:36.20 |  6:07.37 |  214220  |  241781  


范围状态及错误

已选择范围

     文件名 E:\20世纪中华歌坛名人百集珍藏版-中国歌剧歌坛名人集2[lwg188原创]\群星 - 中国歌剧歌坛名人集2.wav

     峰值电平 100.0 %
     范围质量 100.0 %
     复制 CRC A1088A6B
     复制成功

没有错误发生

状态报告结尾
